HIERARCHY
ROOT Hips
{
	OFFSET -0.001795 -0.223333 0.028219
	CHANNELS 6 Xposition Yposition Zposition Zrotation Yrotation Xrotation 
	JOINT LeftUpLeg
	{
		OFFSET 0.069520 -0.091406 -0.006815
		CHANNELS 3 Zrotation Yrotation Xrotation
		JOINT LeftLeg
		{
			OFFSET 0.034277 -0.375199 -0.004496
			CHANNELS 3 Zrotation Yrotation Xrotation
			JOINT LeftFoot
			{
				OFFSET -0.013596 -0.397961 -0.043693
				CHANNELS 3 Zrotation Yrotation Xrotation
				JOINT LeftToe
				{
					OFFSET 0.026358 -0.055791 0.119288
					CHANNELS 3 Zrotation Yrotation Xrotation
					End Site
					{
						OFFSET 0.000000 0.000000 0.000000
					}
				}
			}
		}
	}
	JOINT RightUpLeg
	{
		OFFSET -0.067670 -0.090522 -0.004320
		CHANNELS 3 Zrotation Yrotation Xrotation
		JOINT RightLeg
		{
			OFFSET -0.038290 -0.382569 -0.008850
			CHANNELS 3 Zrotation Yrotation Xrotation
			JOINT RightFoot
			{
				OFFSET 0.015774 -0.398415 -0.042312
				CHANNELS 3 Zrotation Yrotation Xrotation
				JOINT RightToe
				{
					OFFSET -0.025372 -0.048144 0.123348
					CHANNELS 3 Zrotation Yrotation Xrotation
					End Site
					{
						OFFSET 0.000000 0.000000 0.000000
					}
				}
			}
		}
	}
	JOINT Spine
	{
		OFFSET -0.002533 0.108963 -0.026696
		CHANNELS 3 Zrotation Yrotation Xrotation
		JOINT Spine1
		{
			OFFSET 0.005487 0.135180 0.001092
			CHANNELS 3 Zrotation Yrotation Xrotation
			JOINT Spine2
			{
				OFFSET 0.001457 0.052922 0.025425
				CHANNELS 3 Zrotation Yrotation Xrotation
				JOINT Neck
				{
					OFFSET -0.002778 0.213870 -0.042857
					CHANNELS 3 Zrotation Yrotation Xrotation
					JOINT Head
					{
						OFFSET 0.005152 0.064970 0.051349
						CHANNELS 3 Zrotation Yrotation Xrotation
						End Site
						{
							OFFSET 0.000000 0.000000 0.000000
						}
					}
				}
				JOINT LeftShoulder
				{
					OFFSET 0.078845 0.121749 -0.034090
					CHANNELS 3 Zrotation Yrotation Xrotation
					JOINT LeftArm
					{
						OFFSET 0.090977 0.030469 -0.008868
						CHANNELS 3 Zrotation Yrotation Xrotation
						JOINT LeftForeArm
						{
							OFFSET 0.259612 -0.012772 -0.027456
							CHANNELS 3 Zrotation Yrotation Xrotation
							JOINT LeftHand
							{
								OFFSET 0.249234 0.008986 -0.001171
								CHANNELS 3 Zrotation Yrotation Xrotation
								End Site
								{
									OFFSET 0.000000 0.000000 0.000000
								}
							}
						}
					}
				}
				JOINT RightShoulder
				{
					OFFSET -0.081759 0.118833 -0.038615
					CHANNELS 3 Zrotation Yrotation Xrotation
					JOINT RightArm
					{
						OFFSET -0.096012 0.032551 -0.009143
						CHANNELS 3 Zrotation Yrotation Xrotation
						JOINT RightForeArm
						{
							OFFSET -0.253742 -0.013329 -0.021401
							CHANNELS 3 Zrotation Yrotation Xrotation
							JOINT RightHand
							{
								OFFSET -0.255298 0.007772 -0.005559
								CHANNELS 3 Zrotation Yrotation Xrotation
								End Site
								{
									OFFSET 0.000000 0.000000 0.000000
								}
							}
						}
					}
				}
			}
		}
	}
}
MOTION
Frames: 8
Frame Time: 0.050000
0.020546 0.934462 -0.102351 -3.112632 30.275601 -0.801234 9.079208 -1.376620 -16.410614 -4.901495 -1.118240 21.441272 0.081668 4.478262 6.080007 0.000000 0.000000 0.000000 -2.901536 0.333346 -18.508355 3.598022 -3.376347 26.896068 -6.233210 -14.296357 6.064632 0.000000 0.000000 0.000000 1.612397 -1.919033 17.772230 -7.413020 2.294156 10.836011 -8.198490 11.500697 5.079656 11.669983 -5.862355 -9.118275 0.000000 0.000000 0.000000 9.717479 -42.832569 11.269406 23.489771 -31.081340 -9.351137 40.354891 -13.061059 -5.949332 0.000000 0.000000 0.000000 -17.678801 36.699634 8.096272 -31.692623 46.803405 -9.565880 -38.558842 2.238180 0.744585 0.000000 0.000000 0.000000 
0.019423 0.934166 -0.102150 -3.029159 30.334859 -0.916812 9.153674 -1.375690 -16.431193 -5.239464 -1.057211 21.524324 0.082013 4.545246 6.186828 0.000000 0.000000 0.000000 -2.738228 0.363830 -18.535135 3.418411 -3.356868 27.181151 -6.213152 -14.265226 5.990813 0.000000 0.000000 0.000000 1.479170 -1.895481 17.770255 -7.446733 2.272185 11.181609 -8.452211 11.516360 4.784893 11.376786 -5.897541 -8.434391 0.000000 0.000000 0.000000 9.492583 -43.326620 11.390315 23.120411 -30.765651 -9.103023 39.997280 -13.168932 -5.902859 0.000000 0.000000 0.000000 -17.373944 36.910294 8.320564 -30.868821 46.764970 -9.328582 -39.631239 2.937897 0.580364 0.000000 0.000000 0.000000 
0.018336 0.934058 -0.101461 -2.937360 30.302827 -0.783679 9.290687 -1.368518 -16.386067 -5.322579 -1.007326 21.289512 0.127129 4.684162 6.284305 0.000000 0.000000 0.000000 -2.663438 0.378629 -18.677930 3.414405 -3.349247 27.192331 -6.396409 -14.703572 5.806279 0.000000 0.000000 0.000000 1.264351 -1.839047 17.664139 -7.475711 2.289556 11.145488 -8.657532 11.490363 4.737804 11.023323 -5.861632 -7.822591 0.000000 0.000000 0.000000 8.563648 -43.748333 11.585813 23.125765 -30.432085 -8.938547 39.859947 -13.682718 -5.988760 0.000000 0.000000 0.000000 -17.014107 36.930233 8.490679 -30.114563 46.743104 -9.110101 -40.948996 4.309044 0.186784 0.000000 0.000000 0.000000 
0.017244 0.933854 -0.100357 -2.944230 30.497543 -0.930272 9.437899 -1.343459 -16.091561 -5.439091 -0.961824 21.026862 0.090994 4.701496 6.402883 0.000000 0.000000 0.000000 -2.410212 0.423581 -18.685166 3.305374 -3.376911 27.472261 -6.459195 -14.873885 5.640906 0.000000 0.000000 0.000000 1.177781 -1.819199 17.609928 -7.261167 2.158506 11.211147 -9.152494 11.526217 4.565661 11.163862 -6.259677 -7.068829 0.000000 0.000000 0.000000 8.004912 -44.414465 11.785572 22.851075 -30.069044 -8.710330 39.808539 -13.817651 -6.001538 0.000000 0.000000 0.000000 -16.337394 37.216692 8.909883 -29.159261 46.538434 -8.794177 -42.179356 5.634477 -0.225923 0.000000 0.000000 0.000000 
0.016267 0.933758 -0.099064 -2.896997 30.623092 -0.985854 9.540599 -1.334176 -15.978066 -5.565468 -0.945143 21.064815 0.117240 4.779545 6.452692 0.000000 0.000000 0.000000 -2.291602 0.451277 -18.425675 3.265986 -3.416924 27.672300 -6.373517 -14.754356 5.342901 0.000000 0.000000 0.000000 1.096229 -1.793739 17.520895 -7.394106 2.211140 11.304633 -9.385430 11.255277 4.393194 10.736534 -6.162229 -6.491508 0.000000 0.000000 0.000000 7.330836 -44.588802 11.912362 22.756932 -29.841685 -8.526345 40.125403 -13.982207 -6.070706 0.000000 0.000000 0.000000 -15.825911 37.272720 9.159795 -28.511570 46.806254 -8.744075 -43.541935 6.741853 -0.613053 0.000000 0.000000 0.000000 
0.015634 0.933615 -0.097765 -2.830437 30.712492 -1.021544 9.529501 -1.330057 -15.900335 -5.564595 -0.937216 20.944855 0.155849 4.882538 6.502589 0.000000 0.000000 0.000000 -2.234065 0.461415 -18.328326 3.173773 -3.476264 28.122992 -6.381321 -14.779858 5.327769 0.000000 0.000000 0.000000 0.968006 -1.743453 17.324725 -7.395837 2.201711 11.337728 -9.677852 11.387859 4.387433 10.805015 -6.501419 -5.762978 0.000000 0.000000 0.000000 7.256119 -44.862707 11.967078 22.448278 -29.776533 -8.442350 40.766862 -14.025296 -6.241171 0.000000 0.000000 0.000000 -15.352598 37.142012 9.337650 -27.657846 46.878967 -8.485863 -44.491009 7.528976 -0.877707 0.000000 0.000000 0.000000 
0.015583 0.933619 -0.096713 -2.807014 30.792285 -1.167102 9.490984 -1.319741 -15.763299 -5.549788 -0.976514 21.207339 0.206678 4.818320 6.263143 0.000000 0.000000 0.000000 -2.082393 0.487822 -18.331342 3.074305 -3.539603 28.615946 -6.306261 -14.628300 5.250011 0.000000 0.000000 0.000000 1.113969 -1.744983 17.172825 -7.580073 2.322281 11.116669 -9.854130 11.388002 4.645364 10.530414 -6.562404 -5.065973 0.000000 0.000000 0.000000 6.952957 -45.031585 12.027965 22.212513 -29.874736 -8.400218 41.130318 -14.261079 -6.411336 0.000000 0.000000 0.000000 -14.799634 36.961776 9.501263 -27.232831 47.213090 -8.460590 -44.909307 7.758267 -0.975328 0.000000 0.000000 0.000000 
0.015993 0.933345 -0.095877 -2.678767 30.951151 -1.261122 9.296778 -1.303060 -15.466889 -5.430120 -1.015684 21.222801 0.138215 4.710181 6.270638 0.000000 0.000000 0.000000 -2.013013 0.491666 -18.388962 3.000929 -3.662814 29.289013 -6.317511 -14.642710 5.280503 0.000000 0.000000 0.000000 1.163669 -1.718616 16.934167 -7.814087 2.402053 11.382378 -9.855296 11.401974 4.630605 10.220590 -6.626897 -4.292417 0.000000 0.000000 0.000000 6.611465 -45.210225 12.106551 22.330084 -30.057205 -8.482348 41.208879 -14.451079 -6.464952 0.000000 0.000000 0.000000 -14.457955 36.867848 9.618949 -26.939567 47.345368 -8.418347 -44.895667 7.725633 -0.968516 0.000000 0.000000 0.000000 
